<?xml version="1.0" encoding="UTF-8"?>
<svg version="1.1" xmlns="http://www.w3.org/2000/svg" width="512" height="512">
<path d="M0 0 C168.96 0 337.92 0 512 0 C512 168.96 512 337.92 512 512 C343.04 512 174.08 512 0 512 C0 343.04 0 174.08 0 0 Z " fill="#0028FE" transform="translate(0,0)"/>
<path d="M0 0 C64.35 0 128.7 0 195 0 C195 168.96 195 337.92 195 512 C75.21 512 -44.58 512 -168 512 C-166.84922508 491.28605143 -166.84922508 491.28605143 -165.546875 483.09375 C-165.40667938 482.1691095 -165.26648376 481.24446899 -165.12203979 480.29180908 C-164.6742357 477.35963602 -164.21319483 474.42977796 -163.75 471.5 C-163.42882774 469.43653059 -163.1077019 467.37305395 -162.78662109 465.30957031 C-160.51260842 450.80149852 -158.02947666 436.37147216 -155 422 C-154.66896773 420.41718429 -154.33808701 418.83433689 -154.00732422 417.25146484 C-143.51930808 367.15929772 -143.51930808 367.15929772 -138.48828125 349.671875 C-138.24819336 348.8365625 -138.00810547 348.00125 -137.76074219 347.140625 C-137.31396635 345.61096452 -136.85601552 344.08449606 -136.38378906 342.5625 C-135.23527867 338.69541116 -134.52102851 335.82560627 -136 332 C-137.74420619 329.84651504 -137.74420619 329.84651504 -140 327.875 C-145.16207572 322.93310761 -149.57721058 317.60370428 -154 312 C-154.75796875 311.07058594 -155.5159375 310.14117187 -156.296875 309.18359375 C-172.70354948 288.62163406 -185.91605865 265.17659921 -196.14746094 240.98876953 C-196.90630992 239.21855653 -197.70440072 237.46528237 -198.5078125 235.71484375 C-206.20895813 218.73444888 -212.29670644 200.28621121 -216 182 C-216.26055176 180.72467407 -216.26055176 180.72467407 -216.52636719 179.42358398 C-218.05935164 171.24288488 -218.36663547 163.24765774 -218.375 154.9375 C-218.39949219 153.65294922 -218.42398438 152.36839844 -218.44921875 151.04492188 C-218.4832577 139.91985976 -216.80741639 131.0166787 -208.93652344 122.79638672 C-205.68087399 119.77633268 -202.25100725 117.12147181 -198.625 114.5625 C-197.852771 114.01045898 -197.08054199 113.45841797 -196.28491211 112.88964844 C-172.67285169 96.3767798 -172.67285169 96.3767798 -160 98 C-151.03315844 100.58765335 -146.81124551 106.37045169 -142 114 C-141.10667969 115.37285156 -141.10667969 115.37285156 -140.1953125 116.7734375 C-138.43749346 119.50001014 -136.71686647 122.24750077 -135 125 C-133.89733919 126.73012732 -132.79314756 128.45927986 -131.6875 130.1875 C-131.11902344 131.08726562 -130.55054688 131.98703125 -129.96484375 132.9140625 C-128.4742908 135.25508999 -126.96498674 137.57909086 -125.44140625 139.8984375 C-117.0845605 152.7363365 -113.28233544 162.81079 -115.328125 178.51953125 C-117.80670983 188.91188336 -125.05975854 198.41115276 -130.73828125 207.30078125 C-139.72213867 220.56914597 -139.72213867 220.56914597 -142 236 C-140.97246421 239.13620842 -139.58792333 242.04549815 -138.125 245 C-137.72007324 245.83233154 -137.31514648 246.66466309 -136.89794922 247.5222168 C-127.6295426 266.10347004 -114.27236492 282.06859369 -100 297 C-99.36449219 297.67675781 -98.72898437 298.35351562 -98.07421875 299.05078125 C-84.25671757 313.39591971 -57.8666712 335.79896769 -37.21484375 337.26953125 C-32.82210682 337.20154479 -29.3878092 335.74543808 -25.5625 333.6875 C-24.5420459 333.15878296 -24.5420459 333.15878296 -23.50097656 332.61938477 C-16.73958545 329.02942276 -10.37335096 324.84789839 -3.99609375 320.625 C8.71341799 312.21880442 19.8982594 306.38762859 35.56640625 309.51171875 C45.96247665 313.21814385 55.73066802 320.47893472 64.875 326.56640625 C65.46047607 326.94829102 66.04595215 327.33017578 66.64916992 327.72363281 C68.20944762 328.74503873 69.75567263 329.78782059 71.30078125 330.83203125 C73.92002488 332.27617821 73.92002488 332.27617821 76.55078125 331.44921875 C84.89656967 326.51096117 91.00330724 319.18493103 96 311 C96.58201172 310.05060547 96.58201172 310.05060547 97.17578125 309.08203125 C102.84580629 298.81468861 104.58182699 286.74305146 106.03863525 275.27182007 C106.52388738 271.46793873 107.04718298 267.66938183 107.57421875 263.87109375 C107.68471558 263.07433731 107.7952124 262.27758087 107.90905762 261.4566803 C109.12427315 252.86187891 110.63099654 244.32198213 112.16119385 235.77856445 C122.30708501 191.96084866 122.30708501 191.96084866 112.6796875 150.26171875 C107.34575971 143.07952296 99.47657928 140.94294626 91 139 C83.1320196 137.88944646 75.32728633 137.82797294 67.39233398 137.79467773 C65.93289422 137.785082 64.47345714 137.77507097 63.01402283 137.76467896 C59.07668209 137.73780726 55.13932959 137.7167025 51.20194888 137.69667697 C47.07797562 137.67470709 42.9540379 137.64737258 38.83009338 137.62062073 C31.03181662 137.57084181 23.23351997 137.5258485 15.43520457 137.48259836 C6.5524328 137.43309894 -2.33030328 137.3782282 -11.21304047 137.32291877 C-29.47532714 137.20932614 -47.73764753 137.10243824 -66 137 C-65.54215053 135.42341214 -65.080219 133.84800945 -64.61662292 132.27310181 C-64.35983356 131.39567133 -64.10304419 130.51824085 -63.83847332 129.61422157 C-62.57290392 125.66838483 -60.85380692 121.99744019 -59.05078125 118.2734375 C-58.67447067 117.48208405 -58.2981601 116.69073059 -57.91044617 115.87539673 C-56.71779065 113.37201959 -55.51519823 110.87356493 -54.3125 108.375 C-53.52606984 106.72555725 -52.74025851 105.0758193 -51.95507812 103.42578125 C-47.38329903 93.84104786 -42.7018609 84.3149581 -37.92219543 74.83232117 C-36.27444851 71.55839304 -34.63811038 68.27875709 -33 65 C-32.33203125 63.66536458 -31.6640625 62.33072917 -30.99609375 60.99609375 C-29.67029297 58.34513923 -28.35047445 55.69132644 -27.03515625 53.03515625 C-23.25731455 45.41950712 -19.36789256 37.87621737 -15.36669922 30.37548828 C-11.43670657 22.98655793 -7.71382226 15.49921712 -4 8 C-2.68 5.36 -1.36 2.72 0 0 Z " fill="#309FFE" transform="translate(317,0)"/>
<path d="M0 0 C6.08693578 3.34498793 9.30270072 8.42352959 12.9375 14.1875 C13.83082031 15.56035156 13.83082031 15.56035156 14.7421875 16.9609375 C16.50000654 19.68751014 18.22063353 22.43500077 19.9375 25.1875 C21.04016081 26.91762732 22.14435244 28.64677986 23.25 30.375 C23.81847656 31.27476562 24.38695312 32.17453125 24.97265625 33.1015625 C26.4632092 35.44258999 27.97251326 37.76659086 29.49609375 40.0859375 C37.8529395 52.9238365 41.65516456 62.99829 39.609375 78.70703125 C37.13079017 89.09938336 29.87774146 98.59865276 24.19921875 107.48828125 C15.21536133 120.75664597 15.21536133 120.75664597 12.9375 136.1875 C13.96503579 139.32370842 15.34957667 142.23299815 16.8125 145.1875 C17.21742676 146.01983154 17.62235352 146.85216309 18.03955078 147.7097168 C27.3079574 166.29097004 40.66513508 182.25609369 54.9375 197.1875 C55.57300781 197.86425781 56.20851563 198.54101562 56.86328125 199.23828125 C70.68078243 213.58341971 97.0708288 235.98646769 117.72265625 237.45703125 C122.11539318 237.38904479 125.5496908 235.93293808 129.375 233.875 C130.3954541 233.34628296 130.3954541 233.34628296 131.43652344 232.80688477 C138.19791455 229.21692276 144.56414904 225.03539839 150.94140625 220.8125 C163.65091799 212.40630442 174.8357594 206.57512859 190.50390625 209.69921875 C198.60556809 212.58763732 205.99052453 217.93111683 213.23046875 222.49267578 C216.19341408 224.34772326 219.17351121 226.17305478 222.15625 227.99609375 C224.29189405 229.30952618 226.42731289 230.62332487 228.5625 231.9375 C229.56941895 232.55085205 230.57633789 233.1642041 231.61376953 233.79614258 C248.15650655 244.05009917 248.15650655 244.05009917 251.9375 253.1875 C254.36739078 266.50127657 244.85339206 279.59078388 237.9375 290.1875 C229.65398414 301.95335258 220.18764009 309.83627038 205.9375 313.1875 C163.97839713 317.64263613 118.26056142 296.94776249 81.9375 278.1875 C81.9375 277.5275 81.9375 276.8675 81.9375 276.1875 C81.23109375 276.08824219 80.5246875 275.98898437 79.796875 275.88671875 C76.48727339 275.0774036 74.1080358 273.75000359 71.1875 272 C70.13691406 271.37222656 69.08632812 270.74445313 68.00390625 270.09765625 C65.33244488 268.43352299 62.72182248 266.71474214 60.125 264.9375 C57.55454639 263.17901278 55.14973417 261.75830222 52.25 260.625 C48.49471935 258.99534991 46.01231615 256.86978643 42.9375 254.1875 C41.82280761 253.44267122 40.69801175 252.71268653 39.5625 252 C38.69625 251.401875 37.83 250.80375 36.9375 250.1875 C36.9375 249.5275 36.9375 248.8675 36.9375 248.1875 C34.9575 247.1975 34.9575 247.1975 32.9375 246.1875 C32.9375 245.5275 32.9375 244.8675 32.9375 244.1875 C32.0403125 243.754375 32.0403125 243.754375 31.125 243.3125 C28.9375 242.1875 28.9375 242.1875 25.9375 240.1875 C25.9375 239.5275 25.9375 238.8675 25.9375 238.1875 C24.6175 237.8575 23.2975 237.5275 21.9375 237.1875 C21.6075 238.1775 21.2775 239.1675 20.9375 240.1875 C19.9375 237.1875 19.9375 237.1875 19.625 234.7578125 C18.75471984 231.50415144 17.41101378 230.32129904 14.9375 228.0625 C9.77542428 223.12060761 5.36028942 217.79120428 0.9375 212.1875 C0.17953125 211.25808594 -0.5784375 210.32867187 -1.359375 209.37109375 C-17.76604948 188.80913406 -30.97855865 165.36409921 -41.20996094 141.17626953 C-41.96880992 139.40605653 -42.76690072 137.65278237 -43.5703125 135.90234375 C-51.27145813 118.92194888 -57.35920644 100.47371121 -61.0625 82.1875 C-61.32305176 80.91217407 -61.32305176 80.91217407 -61.58886719 79.61108398 C-63.12185164 71.43038488 -63.42913547 63.43515774 -63.4375 55.125 C-63.46199219 53.84044922 -63.48648438 52.55589844 -63.51171875 51.23242188 C-63.5457577 40.10735976 -61.86991639 31.2041787 -53.99902344 22.98388672 C-50.74337399 19.96383268 -47.31350725 17.30897181 -43.6875 14.75 C-42.915271 14.19795898 -42.14304199 13.64591797 -41.34741211 13.07714844 C-14.05629592 -6.00863267 -14.05629592 -6.00863267 0 0 Z " fill="#FCFDFE" transform="translate(162.0625,99.8125)"/>
<path d="M0 0 C0.66 0.33 1.32 0.66 2 1 C1.835 1.66 1.67 2.32 1.5 3 C0.88405461 6.14056952 0.88405461 6.14056952 1.0625 9.9375 C1.11828501 13.67509596 0.22950788 16.45612435 -1 20 C-1.32764658 22.28153901 -1.55651136 24.55533619 -1.75390625 26.8515625 C-2 29 -2 29 -2.5390625 31.0546875 C-3.15251261 33.23571175 -3.15251261 33.23571175 -2.8125 36.5 C-2.66381582 52.55789116 -13.4476423 66.13497984 -24 77 C-26.03882789 79.3039145 -28.01987976 81.64526242 -30 84 C-28.515 84.495 -28.515 84.495 -27 85 C-27 85.66 -27 86.32 -27 87 C-26.42636719 87.10828125 -25.85273438 87.2165625 -25.26171875 87.328125 C-21.22189951 88.52820947 -18.0200383 91.11126772 -15 94 C-14 96.875 -14 96.875 -14 99 C-13.34 99 -12.68 99 -12 99 C-9.69521994 106.88871873 -10.20083349 114.77051883 -13.9296875 122.0625 C-14.28289062 122.701875 -14.63609375 123.34125 -15 124 C-15.67072859 125.33129463 -16.33761024 126.66453677 -17 128 C-18 130 -19 132 -20 134 C-20.66 134 -21.32 134 -22 134 C-22.268125 134.556875 -22.53625 135.11375 -22.8125 135.6875 C-25.10363908 140.14919189 -27.75570989 144.1360784 -30.875 148.0625 C-31.53242188 148.89910156 -32.18984375 149.73570312 -32.8671875 150.59765625 C-35.98697934 154.11170749 -39.53099237 157.36136387 -44 159 C-44.99 158.67 -45.98 158.34 -47 158 C-46.02160156 157.36384766 -46.02160156 157.36384766 -45.0234375 156.71484375 C-30.96753553 147.28204818 -20.61061348 131.15525373 -14.625 115.375 C-13.49037724 109.24803709 -12.87175925 104.30456861 -16.125 98.75 C-21.01506526 91.85759604 -27.80299317 88.13899009 -35 84 C-32.13832394 81.04889656 -29.21577005 78.32632101 -26.0625 75.6875 C-22.02961427 72.18525713 -19.00426983 68.39481758 -16 64 C-15.56945312 63.443125 -15.13890625 62.88625 -14.6953125 62.3125 C-4.31110962 47.86491339 -3.93366348 26.45672169 -1.74798584 9.35510254 C-1.3345745 6.17871715 -0.87744655 3.08431295 0 0 Z " fill="#1A8BEB" transform="translate(427,250)"/>
<path d="M0 0 C0.66 0.33 1.32 0.66 2 1 C1.835 1.66 1.67 2.32 1.5 3 C0.88405461 6.14056952 0.88405461 6.14056952 1.0625 9.9375 C1.11828501 13.67509596 0.22950788 16.45612435 -1 20 C-1.32764658 22.28153901 -1.55651136 24.55533619 -1.75390625 26.8515625 C-2 29 -2 29 -2.5390625 31.0546875 C-3.15251261 33.23571175 -3.15251261 33.23571175 -2.8125 36.5 C-2.68005518 50.80404086 -11.76205671 64.52131445 -21.37890625 74.34765625 C-22.24386719 75.22292969 -23.10882813 76.09820312 -24 77 C-24.62777344 77.69996094 -25.25554687 78.39992188 -25.90234375 79.12109375 C-27.4375 80.8125 -27.4375 80.8125 -30 83 C-32.16015625 82.63671875 -32.16015625 82.63671875 -34 82 C-33.443125 81.59910156 -32.88625 81.19820313 -32.3125 80.78515625 C-13.88857894 67.06057992 -7.50134613 49.91083463 -4.26585388 27.89360046 C-3.3780541 21.72085594 -2.53856672 15.54109833 -1.7480011 9.35513306 C-1.33457049 6.17874028 -0.8774494 3.08432299 0 0 Z " fill="#0977FE" transform="translate(427,250)"/>
<path d="M0 0 C4.47488668 1.39203607 8.59266529 3.15434921 12.8125 5.1875 C24.18646087 10.58065907 35.77895791 15.8471513 48 19 C48 19.33 48 19.66 48 20 C42.43377565 20.34078925 39.01927736 19.33656015 34 17 C32.46377865 16.48351179 30.92176323 15.98400373 29.375 15.5 C25.91031566 14.38425419 23.11025442 12.90071103 20 11 C17.30745009 10.29329272 17.30745009 10.29329272 15 10 C15 9.34 15 8.68 15 8 C12.69 7.67 10.38 7.34 8 7 C8 6.34 8 5.68 8 5 C6.8553125 4.5978125 6.8553125 4.5978125 5.6875 4.1875 C3.12619116 3.05575888 1.80307062 2.08776599 0 0 Z " fill="#71B3ED" transform="translate(250,381)"/>
<path d="M0 0 C-1.39278017 0.65239158 -2.78939212 1.29660552 -4.1875 1.9375 C-4.96480469 2.29714844 -5.74210937 2.65679687 -6.54296875 3.02734375 C-11.7349052 5.08265722 -16.48431285 5.09136175 -22 4.75 C-23.11362915 4.68437866 -23.11362915 4.68437866 -24.24975586 4.61743164 C-31.04184386 4.13909508 -37.43188217 2.81622736 -44 1 C-44 0.67 -44 0.34 -44 0 C-42.94039063 0.10828125 -42.94039063 0.10828125 -41.859375 0.21875 C-34.77588448 0.85946774 -27.73537573 1.13508293 -20.625 1.1875 C-19.78163086 1.20039063 -18.93826172 1.21328125 -18.06933594 1.2265625 C-12.15159036 1.23592973 -5.39589417 -2.15835767 0 0 Z " fill="#1689E7" transform="translate(379,411)"/>
<path d="M0 0 C0.99 0 1.98 0 3 0 C2.50168276 3.68754757 1.89932357 5.60490662 -1 8 C-0.67 8.66 -0.34 9.32 0 10 C-2 13 -2 13 -3.5625 14.375 C-5.41431243 16.46835319 -5.50160501 18.29442718 -6 21 C-6.66 21.33 -7.32 21.66 -8 22 C-8.83047008 23.85240164 -8.83047008 23.85240164 -9.5 26 C-10.21875 28.1875 -10.21875 28.1875 -11 30 C-11.66 30.33 -12.32 30.66 -13 31 C-12.4485052 25.70729617 -10.62790435 21.81281511 -8.1875 17.1875 C-7.46074052 15.77551015 -6.73546932 14.36275325 -6.01171875 12.94921875 C-5.49037354 11.93480713 -5.49037354 11.93480713 -4.95849609 10.89990234 C-3.15709993 7.32922864 -1.57489682 3.67475924 0 0 Z " fill="#B1D7FE" transform="translate(269,95)"/>
<path d="M0 0 C0.66 0 1.32 0 2 0 C1.979375 0.94875 1.95875 1.8975 1.9375 2.875 C1.77448174 5.90666283 1.77448174 5.90666283 3 8 C12.24 8 21.48 8 31 8 C31 8.66 31 9.32 31 10 C19.78 10 8.56 10 -3 10 C-2.01 6.7 -1.02 3.4 0 0 Z " fill="#5984FF" transform="translate(254,127)"/>
<path d="M0 0 C0.99 0 1.98 0 3 0 C2.67 10.89 2.34 21.78 2 33 C1.67 33 1.34 33 1 33 C-0.26750669 26.20336964 -0.11139726 19.45701316 -0.0625 12.5625 C-0.05798828 11.35400391 -0.05347656 10.14550781 -0.04882812 8.90039062 C-0.03710145 5.93354211 -0.02068896 2.9667973 0 0 Z " fill="#203FDD" transform="translate(97,136)"/>
<path d="M0 0 C3 1 3 1 4.1328125 2.6015625 C4.46023438 3.26929688 4.78765625 3.93703125 5.125 4.625 C5.45757812 5.27726563 5.79015625 5.92953125 6.1328125 6.6015625 C8.68462629 13.65928173 8.30562898 21.53035042 8.5625 28.9375 C8.60568359 30.09830078 8.64886719 31.25910156 8.69335938 32.45507812 C8.79884842 35.30328232 8.90096555 38.15156529 9 41 C8.01 41.495 8.01 41.495 7 42 C6.98018066 41.28457031 6.96036133 40.56914062 6.93994141 39.83203125 C6.84400673 36.5543514 6.73460702 33.27724999 6.625 30 C6.5940625 28.87464844 6.563125 27.74929687 6.53125 26.58984375 C6.17294091 15.35902446 6.17294091 15.35902446 1.875 5.125 C0 2 0 2 0 0 Z " fill="#0E79FF" transform="translate(430,149)"/>
<path d="M0 0 C3.77022754 1.37902016 6.9538304 3.12037266 10.3125 5.3125 C11.26382813 5.92867188 12.21515625 6.54484375 13.1953125 7.1796875 C14.12085938 7.78039062 15.04640625 8.38109375 16 9 C18.66067416 10.67647494 21.33038 12.33778377 24 14 C20.265625 15.1171875 20.265625 15.1171875 17.875 14.0625 C17.25625 13.711875 16.6375 13.36125 16 13 C15.34 13 14.68 13 14 13 C13.195625 12.030625 12.39125 11.06125 11.5625 10.0625 C9.29315623 6.80624673 9.29315623 6.80624673 6 6 C5 5 4 4 3 3 C2.01 2.67 1.02 2.34 0 2 C0 1.34 0 0.68 0 0 Z " fill="#98C9F4" transform="translate(216,361)"/>
<path d="M0 0 C6.33654266 0.70208537 12.30812246 2.34372204 18.4375 4.0625 C19.45521484 4.34416016 20.47292969 4.62582031 21.52148438 4.91601562 C24.01542128 5.60682444 26.50818649 6.30157818 29 7 C29 7.33 29 7.66 29 8 C22.84765625 8.09765625 22.84765625 8.09765625 21 8 C20.67 7.67 20.34 7.34 20 7 C18.65252916 6.76924918 17.29622435 6.58846937 15.9375 6.4375 C14.638125 6.293125 13.33875 6.14875 12 6 C12 5.34 12 4.68 12 4 C11.38511719 3.96261719 10.77023437 3.92523438 10.13671875 3.88671875 C9.32847656 3.82097656 8.52023437 3.75523437 7.6875 3.6875 C6.88699219 3.62949219 6.08648437 3.57148438 5.26171875 3.51171875 C2.63727666 2.91793306 1.69179328 2.04219706 0 0 Z " fill="#409CE9" transform="translate(296,401)"/>
<path d="M0 0 C1.4999411 2.99988219 0.50081674 5.07793234 -0.21484375 8.3203125 C-0.48876953 9.57714844 -0.76269531 10.83398438 -1.04492188 12.12890625 C-1.34230147 13.4609702 -1.63982944 14.79300104 -1.9375 16.125 C-2.23174375 17.46470686 -2.52537137 18.8045492 -2.81835938 20.14453125 C-3.53950722 23.43107391 -4.26697847 26.71608881 -5 30 C-5.33 30 -5.66 30 -6 30 C-6.42896204 19.22828645 -5.44833532 9.44378123 0 0 Z " fill="#0E32E4" transform="translate(169,388)"/>
<path d="M0 0 C8.87005023 0.31964145 16.62538885 2.09590097 25 5 C25 5.66 25 6.32 25 7 C16.52073664 5.40589849 8.20604109 3.72247481 0 1 C0 0.67 0 0.34 0 0 Z " fill="#D0F3FD" transform="translate(303,402)"/>
<path d="M0 0 C0.66 0.33 1.32 0.66 2 1 C0.61559342 2.63474589 -0.78303245 4.25745662 -2.1875 5.875 C-2.96480469 6.77992188 -3.74210937 7.68484375 -4.54296875 8.6171875 C-7.02723597 11.02641326 -8.6711391 12.13918163 -12 13 C-12.99 12.67 -13.98 12.34 -15 12 C-14.33613281 11.55269531 -13.67226563 11.10539062 -12.98828125 10.64453125 C-8.23971092 7.39332032 -3.87610945 4.2637204 0 0 Z " fill="#1288E9" transform="translate(395,396)"/>
<path d="M0 0 C4.93046231 -0.28691817 8.5737758 0.66401546 13.1875 2.375 C15.00314453 3.03628906 15.00314453 3.03628906 16.85546875 3.7109375 C20 5 20 5 23 7 C17.43377565 7.34078925 14.01927736 6.33656015 9 4 C6.01874164 2.94105703 3.0133403 1.96344894 0 1 C0 0.67 0 0.34 0 0 Z " fill="#5DABED" transform="translate(275,394)"/>
<path d="M0 0 C0.66 0.66 1.32 1.32 2 2 C1.53852834 4.93744458 0.97233631 7.68957149 0.25 10.5625 C0.06695312 11.35591797 -0.11609375 12.14933594 -0.3046875 12.96679688 C-0.797044 14.9969006 -1.39152752 17.00162634 -2 19 C-2.66 19.33 -3.32 19.66 -4 20 C-3.42978625 13.04339229 -1.98697306 6.68572695 0 0 Z " fill="#A0CBFD" transform="translate(177,357)"/>
<path d="M0 0 C0.66 0.33 1.32 0.66 2 1 C2.16893147 5.98347834 2.15836498 9.42934474 0 14 C-0.35858516 15.32676508 -0.7018576 16.65835921 -1 18 C-1.33 18 -1.66 18 -2 18 C-2.23268915 11.71739294 -1.40454548 6.11980533 0 0 Z " fill="#0A7DFD" transform="translate(430,232)"/>
<path d="M0 0 C0.68707555 2.49064888 1 4.37886292 1 7 C0.01 7 -0.98 7 -2 7 C-2.0825 7.928125 -2.165 8.85625 -2.25 9.8125 C-3 13 -3 13 -5.0625 14.875 C-6.0215625 15.431875 -6.0215625 15.431875 -7 16 C-6.28028381 12.24654344 -4.66887798 9.13908031 -2.9375 5.75 C-2.11572266 4.13351563 -2.11572266 4.13351563 -1.27734375 2.484375 C-0.64505859 1.25460938 -0.64505859 1.25460938 0 0 Z " fill="#A8D2FE" transform="translate(286,61)"/>
<path d="M0 0 C2.11810948 3.8649169 2.38277606 6.55979772 2 11 C0.5 14.4375 0.5 14.4375 -1 17 C-2.3357457 13.22628488 -1.72408671 10.14168653 -1.0625 6.25 C-0.86785156 5.07953125 -0.67320312 3.9090625 -0.47265625 2.703125 C-0.31667969 1.81109375 -0.16070312 0.9190625 0 0 Z " fill="#97C7FE" transform="translate(154,468)"/>
<path d="M0 0 C0.66 0.33 1.32 0.66 2 1 C1.6083965 6.95507399 0.62875405 11.62819824 -2 17 C-3.17832105 13.46503684 -2.77102654 11.57914276 -2.125 7.9375 C-1.94195312 6.87402344 -1.75890625 5.81054688 -1.5703125 4.71484375 C-1 2 -1 2 0 0 Z " fill="#99CAFD" transform="translate(162,424)"/>
<path d="M0 0 C0.33 1.32 0.66 2.64 1 4 C0.01 5.485 0.01 5.485 -1 7 C-1.66 7 -2.32 7 -3 7 C-3.33 8.65 -3.66 10.3 -4 12 C-4.99 11.67 -5.98 11.34 -7 11 C-4.69 7.37 -2.38 3.74 0 0 Z " fill="#1736DE" transform="translate(190,200)"/>
<path d="M0 0 C0.66 0 1.32 0 2 0 C2 3 2 6 2 9 C0.35 9 -1.3 9 -3 9 C-2.01 6.03 -1.02 3.06 0 0 Z " fill="#ABD4FD" transform="translate(254,127)"/>
<path d="M0 0 C0.33 0 0.66 0 1 0 C1.4946164 7.54290017 -0.09382609 13.058915 -3 20 C-3.5625 18.0625 -3.5625 18.0625 -4 16 C-3.67 15.67 -3.34 15.34 -3 15 C-2.835 13.845 -2.67 12.69 -2.5 11.5 C-2 8 -2 8 -1 7 C-0.63239269 4.67182036 -0.29758419 2.3381615 0 0 Z " fill="#BDEAFD" transform="translate(413,353)"/>
<path d="M0 0 C0.66 0.66 1.32 1.32 2 2 C1.5390625 4.8203125 1.5390625 4.8203125 0.625 8.125 C0.32851562 9.22070312 0.03203125 10.31640625 -0.2734375 11.4453125 C-0.51320312 12.28835938 -0.75296875 13.13140625 -1 14 C-1.33 14 -1.66 14 -2 14 C-2.05437607 12.41705218 -2.09296271 10.83355744 -2.125 9.25 C-2.14820313 8.36828125 -2.17140625 7.4865625 -2.1953125 6.578125 C-1.99139502 3.8864142 -1.36551721 2.30095026 0 0 Z " fill="#1133E5" transform="translate(175,358)"/>
<path d="M0 0 C0.33 0 0.66 0 1 0 C1 1.65 1 3.3 1 5 C0.34 5 -0.32 5 -1 5 C-1.268125 5.969375 -1.53625 6.93875 -1.8125 7.9375 C-2.204375 8.948125 -2.59625 9.95875 -3 11 C-3.99 11.33 -4.98 11.66 -6 12 C-4.43358249 7.69235185 -2.31663844 3.93828536 0 0 Z " fill="#1935E3" transform="translate(198,186)"/>
<path d="M0 0 C0.66 0.99 1.32 1.98 2 3 C1.125 5.6875 1.125 5.6875 0 8 C-0.66 8 -1.32 8 -2 8 C-2.66 9.32 -3.32 10.64 -4 12 C-5 9 -5 9 -4.00390625 6.73828125 C-3.52824219 5.93777344 -3.05257813 5.13726562 -2.5625 4.3125 C-2.08941406 3.50425781 -1.61632812 2.69601563 -1.12890625 1.86328125 C-0.75636719 1.24839844 -0.38382812 0.63351562 0 0 Z " fill="#9ECEFE" transform="translate(311,12)"/>
<path d="M0 0 C1.32 0 2.64 0 4 0 C4.268125 0.78375 4.53625 1.5675 4.8125 2.375 C5.84814432 5.28114923 5.84814432 5.28114923 9 7 C8.67 7.99 8.34 8.98 8 10 C6.66370254 8.52351062 5.33103329 7.0437367 4 5.5625 C3.2575 4.73878906 2.515 3.91507812 1.75 3.06640625 C0 1 0 1 0 0 Z " fill="#D5E5FE" transform="translate(168,317)"/>
<path d="M0 0 C0.99 0 1.98 0 3 0 C3 3 3 3 0.625 5.625 C-2 8 -2 8 -4 9 C-2.94124926 5.59687262 -1.99097846 2.98646769 0 0 Z " fill="#9FD1FB" transform="translate(303,28)"/>
<path d="M0 0 C4.23429756 1.31061591 8.07407404 2.94356259 12 5 C10.02 5.99 10.02 5.99 8 7 C8 6.34 8 5.68 8 5 C6.8553125 4.5978125 6.8553125 4.5978125 5.6875 4.1875 C3.12619116 3.05575888 1.80307062 2.08776599 0 0 Z " fill="#7BBBF0" transform="translate(250,381)"/>
<path d="M0 0 C0.33 0.66 0.66 1.32 1 2 C0.02616054 3.68208635 -0.97695052 5.34738161 -2 7 C-2.69579454 9.19130534 -2.69579454 9.19130534 -3 11 C-3.99 11 -4.98 11 -6 11 C-4.74194623 6.49197399 -3.09592835 3.5087188 0 0 Z " fill="#CFE1FD" transform="translate(107,124)"/>
<path d="M0 0 C0.33 1.32 0.66 2.64 1 4 C0.01 4.33 -0.98 4.66 -2 5 C-2.66 5.66 -3.32 6.32 -4 7 C-4.33 5.68 -4.66 4.36 -5 3 C-3.35 2.01 -1.7 1.02 0 0 Z " fill="#DCE6FE" transform="translate(327,312)"/>
<path d="M0 0 C1.890625 0.21484375 1.890625 0.21484375 4 1 C5.046875 3.06640625 5.046875 3.06640625 5.75 5.5625 C5.99234375 6.38878906 6.2346875 7.21507812 6.484375 8.06640625 C6.65453125 8.70449219 6.8246875 9.34257812 7 10 C3.8022097 7.02211505 2.08737938 3.81486577 0 0 Z " fill="#1A39DC" transform="translate(187,260)"/>
<path d="M0 0 C0.99 0.33 1.98 0.66 3 1 C3.33 1.99 3.66 2.98 4 4 C4.66 4.33 5.32 4.66 6 5 C6 6.65 6 8.3 6 10 C3.25722422 6.80009492 1.3697164 3.99500618 0 0 Z " fill="#1935DD" transform="translate(179,120)"/>
<path d="M0 0 C1.11841676 3.35525029 0.91538821 3.97089854 -0.3125 7.125 C-0.57675781 7.82882813 -0.84101563 8.53265625 -1.11328125 9.2578125 C-2 11 -2 11 -4 12 C-3.45660208 7.43545749 -2.20536179 4.0271824 0 0 Z " fill="#A6C7FF" transform="translate(260,114)"/>
<path d="M0 0 C0.66 0.33 1.32 0.66 2 1 C2 2.65 2 4.3 2 6 C1.01 5.67 0.02 5.34 -1 5 C-1.33 5.99 -1.66 6.98 -2 8 C-2.33 7.01 -2.66 6.02 -3 5 C-1.5625 2.3125 -1.5625 2.3125 0 0 Z " fill="#ADD2FD" transform="translate(278,77)"/>
<path d="M0 0 C3.0916909 2.52956528 3.90931332 5.22454612 5 9 C4.34 9 3.68 9 3 9 C3 8.34 3 7.68 3 7 C2.34 7 1.68 7 1 7 C0.67 4.69 0.34 2.38 0 0 Z " fill="#1A3DE0" transform="translate(128,257)"/>
<path d="M0 0 C0.66 0 1.32 0 2 0 C1.01 2.97 0.02 5.94 -1 9 C-1.33 9 -1.66 9 -2 9 C-2.125 5.625 -2.125 5.625 -2 2 C-1.34 1.34 -0.68 0.68 0 0 Z " fill="#0933EB" transform="translate(267,95)"/>
<path d="M0 0 C0.99 0 1.98 0 3 0 C1.80100302 3.0831351 0.52299523 6.06279492 -1 9 C-2.25541557 5.23375329 -1.37061958 3.62811066 0 0 Z " fill="#0D36E4" transform="translate(306,16)"/>
<path d="M0 0 C0.66 0 1.32 0 2 0 C1.39816251 2.02045442 0.72693904 4.02111039 0 6 C-0.99 6.495 -0.99 6.495 -2 7 C-2.33 5.35 -2.66 3.7 -3 2 C-2.01 2 -1.02 2 0 2 C0 1.34 0 0.68 0 0 Z " fill="#E1FAFE" transform="translate(405,376)"/>
<path d="M0 0 C0.598125 0.309375 1.19625 0.61875 1.8125 0.9375 C4.08956772 2.10209704 4.08956772 2.10209704 7 3 C6.67 3.99 6.34 4.98 6 6 C3.96166576 4.7260411 1.96147874 3.38938077 0 2 C0 1.34 0 0.68 0 0 Z " fill="#BCDBF3" transform="translate(199,348)"/>
<path d="M0 0 C0.66 0 1.32 0 2 0 C2 0.66 2 1.32 2 2 C3.32 2.33 4.64 2.66 6 3 C5.67 4.32 5.34 5.64 5 7 C0 1.125 0 1.125 0 0 Z " fill="#1636DD" transform="translate(207,286)"/>
</svg>
